<svg xmlns="http://www.w3.org/2000/svg" width="1024" height="1024" viewBox="0 0 1024 1024">
<defs>
 <linearGradient id="bulbG" x1="0" y1="0" x2="0" y2="1"><stop offset="0" stop-color="#0ABFFF"/><stop offset="1" stop-color="#0090FB"/></linearGradient>
 <linearGradient id="cardG" x1="0" y1="0" x2="0" y2="1"><stop offset="0" stop-color="#E6F8FF"/><stop offset="1" stop-color="#D2EDFF"/></linearGradient>
 <linearGradient id="hdrG" x1="0" y1="0" x2="0" y2="1"><stop offset="0" stop-color="#FE9C06"/><stop offset="1" stop-color="#F07410"/></linearGradient>
</defs>
<g><path d="M0 0 C0.8157 0.4325 1.6313 0.865 2.4717 1.3105 C12.0073 6.39 21.3766 11.4558 30 18 C31.206 18.8804 32.4131 19.7591 33.6211 20.6367 C47.3481 30.6749 59.8059 41.6448 71.875 53.625 C72.7428 54.4834 73.6106 55.3419 74.5046 56.2263 C80.424 62.1751 85.7959 68.4202 91 75 C91.5704 75.7111 92.1408 76.4222 92.7285 77.1548 C136.877 132.4775 160.3438 204.5764 152.9846 275.3652 C145.9525 335.4126 118.9879 386.194 82 433 C78.3257 437.6607 74.6575 442.3261 71 447 C70.4752 447.6689 69.9504 448.3377 69.4097 449.0269 C55.1992 467.183 43.8291 485.1818 36.4375 507.1875 C30.0259 526.1581 21.2978 542.7428 3.0039 552.6172 C-11.0362 559.5297 -24.5279 559.2946 -39.8486 559.2747 C-42.0623 559.279 -44.2761 559.2842 -46.4898 559.2901 C-52.4796 559.3035 -58.4694 559.3041 -64.4593 559.3016 C-69.4713 559.3005 -74.4834 559.3054 -79.4954 559.3102 C-92.0027 559.3219 -104.5099 559.3211 -117.0171 559.3146 C-127.8475 559.3095 -138.6777 559.3207 -149.508 559.3397 C-160.6605 559.3592 -171.813 559.3671 -182.9656 559.3636 C-189.214 559.3618 -195.4624 559.3644 -201.7108 559.3783 C-207.5911 559.391 -213.4712 559.3889 -219.3515 559.3759 C-221.4996 559.3736 -223.6477 559.3762 -225.7957 559.3845 C-246.0556 559.4571 -264.1335 558.1593 -279.6985 543.5852 C-290.1748 533.147 -295.7844 519.8066 -300.793 506.1172 C-309.9735 481.1214 -323.164 461.1231 -340.0195 440.6523 C-343.7345 436.1272 -347.2468 431.4641 -350.7114 426.7451 C-352.2222 424.6991 -353.7498 422.6663 -355.2773 420.6328 C-382.81 383.8419 -402.9301 344.0342 -411.8125 298.6875 C-412.0073 297.7001 -412.2021 296.7127 -412.4028 295.6953 C-415.4077 279.4503 -416.3829 263.2435 -416.3125 246.75 C-416.3116 246.3031 -416.3116 246.3031 -416.307 244.0413 C-416.2595 230.1654 -415.6533 216.654 -413 203 C-412.8231 202.0614 -412.6462 201.1228 -412.4639 200.1558 C-402.7049 149.3973 -379.8335 101.5427 -344 64 C-342.8457 62.674 -341.699 61.3413 -340.5625 60 C-333.3882 51.7392 -325.4408 43.9571 -317 37 C-316.4969 36.5831 -315.9939 36.1663 -315.4756 35.7368 C-301.1667 23.9276 -286.2099 13.0573 -270 4 C-269.5918 3.7706 -269.5918 3.7706 -267.5259 2.6099 C-185.6454 -42.9327 -82.7846 -44.1167 0 0 Z M-176 7 C-176.9515 7.1663 -177.903 7.3326 -178.8833 7.5039 C-225.3207 15.9428 -268.0719 38.3336 -302 71 C-302.5728 71.5509 -303.1457 72.1018 -303.7358 72.6694 C-311.3676 80.0537 -318.4842 87.5952 -325 96 C-325.7747 96.9578 -326.5495 97.9155 -327.3477 98.9023 C-367.8115 149.7547 -385.6473 216.0543 -378.4807 280.3499 C-371.7474 334.4512 -347.2878 386.3956 -309.793 426.0312 C-307.0513 429.0417 -306.7947 431.1446 -306.4375 435.125 C-306.3537 436.0351 -306.2699 436.9452 -306.1836 437.8828 C-306.123 438.5815 -306.0624 439.2802 -306 440 C-304.7831 440.0284 -303.5662 440.0567 -302.3125 440.0859 C-298.5647 440.566 -298.09 440.9045 -295.3125 443.8516 C-294.5128 445.0912 -293.7432 446.3507 -293 447.625 C-292.5819 448.3001 -292.1639 448.9753 -291.7332 449.6709 C-290.4557 451.7628 -289.224 453.8765 -288 456 C-287.6334 456.6178 -287.2668 457.2356 -286.8892 457.8721 C-279.9199 469.686 -275.5346 482.371 -271.2188 495.3398 C-265.2572 513.1299 -265.2572 513.1299 -260 519 C-259.5024 519.5659 -259.0048 520.1318 -258.4922 520.7148 C-248.2574 530.826 -233.2499 529.5697 -219.9841 529.5017 C-217.8722 529.5055 -215.7602 529.511 -213.6482 529.5181 C-207.9416 529.532 -202.2354 529.5209 -196.5288 529.5044 C-190.5416 529.4905 -184.5543 529.497 -178.567 529.5005 C-168.5159 529.5032 -158.4649 529.4898 -148.4138 529.4666 C-136.811 529.4399 -125.2084 529.4382 -113.6055 529.4499 C-102.4196 529.4607 -91.2337 529.4545 -80.0477 529.4404 C-75.298 529.4346 -70.5483 529.4347 -65.7986 529.4395 C-60.2014 529.4442 -54.6045 529.434 -49.0074 529.4125 C-46.9592 529.407 -44.911 529.4064 -42.8629 529.4114 C-28.5469 529.4421 -15.3467 529.3905 -4.1289 519.3203 C3.442 511.4727 6.2079 500.6322 9.5371 490.4963 C13.6422 478.028 18.0643 466.1988 25 455 C25.3969 454.3282 25.7937 453.6565 26.2026 452.9644 C32.8589 441.8143 32.8589 441.8143 37.8555 439.9141 C40.3558 439.6531 42.5191 439.6305 45 440 C44.9678 439.1776 44.9355 438.3552 44.9023 437.5078 C44.9885 429.2146 46.5393 425.3393 52.4141 419.5664 C65.3707 406.7076 75.9712 389.6027 84.9751 373.7988 C85.9647 372.062 86.9723 370.3355 87.9805 368.6094 C99.7983 347.5684 107.9161 324.0325 112.75 300.4375 C112.8495 299.9535 112.8495 299.9535 113.3528 297.5039 C116.1525 283.0139 117.3414 268.5655 117.2607 253.8228 C117.25 251.5001 117.2607 249.1781 117.2734 246.8555 C117.2884 232.266 116.0103 217.8678 112.75 203.625 C112.5324 202.6593 112.3148 201.6937 112.0906 200.6987 C101.1271 153.2278 78.3306 113.1197 45.3125 77.625 C44.7071 76.9711 44.1017 76.3172 43.478 75.6436 C39.2278 71.1227 34.7421 66.999 30 63 C29.7116 62.7559 29.7116 62.7559 28.2522 61.5205 C18.3479 53.2336 7.918 45.8878 -3 39 C-3.596 38.6239 -4.1921 38.2478 -4.8062 37.8604 C-33.4485 20.0685 -67.6039 8.9576 -101 5 C-101.7707 4.9057 -102.5414 4.8115 -103.3354 4.7144 C-112.4091 3.7421 -121.5096 3.7564 -130.625 3.75 C-131.4883 3.7493 -132.3515 3.7487 -133.241 3.748 C-147.6724 3.7658 -161.7606 4.4853 -176 7 Z " fill="url(#bulbG)" transform="translate(642,185)"/><path d="M0 0 C0.3867 0.0039 0.3867 0.0039 2.3438 0.0234 C3.1172 0.0157 3.8906 0.008 4.6875 0 C6.8438 0.3984 6.8438 0.3984 9.8438 3.3984 C4.8938 3.3984 -0.0562 3.3984 -5.1562 3.3984 C-2.1562 0.3984 -2.1562 0.3984 0 0 Z " fill="url(#bulbG)" transform="translate(432.15625,274.6015625)"/><path d="M0 0 C3.1346 0.1097 5.3993 0.537 8.0625 2.3125 C8.0625 2.6425 8.0625 2.9725 8.0625 3.3125 C3.1125 3.3125 -1.8375 3.3125 -6.9375 3.3125 C-3.9375 0.3125 -3.9375 0.3125 0 0 Z " fill="url(#bulbG)" transform="translate(510.9375,274.6875)"/><path d="M0 0 C0.3867 0.0039 0.3867 0.0039 2.3438 0.0234 C3.1172 0.0157 3.8906 0.008 4.6875 0 C6.8438 0.3984 6.8438 0.3984 9.8438 3.3984 C4.8937 3.3984 -0.0562 3.3984 -5.1562 3.3984 C-2.1562 0.3984 -2.1562 0.3984 0 0 Z " fill="url(#bulbG)" transform="translate(587.15625,274.6015625)"/><path d="M0 0 C0.8934 -0.0023 1.7867 -0.0045 2.7072 -0.0069 C5.6832 -0.0132 8.6591 -0.0124 11.6351 -0.0116 C13.776 -0.0145 15.9169 -0.0179 18.0579 -0.0217 C23.8617 -0.0305 29.6655 -0.0329 35.4693 -0.0335 C39.0983 -0.0343 42.7274 -0.0364 46.3565 -0.039 C59.0257 -0.0483 71.6949 -0.0524 84.3641 -0.0516 C96.1599 -0.051 107.9557 -0.0615 119.7515 -0.0773 C129.891 -0.0904 140.0305 -0.0958 150.1701 -0.0951 C156.2206 -0.0949 162.271 -0.0977 168.3215 -0.1083 C174.0137 -0.118 179.7059 -0.1181 185.3981 -0.1108 C187.4818 -0.1098 189.5654 -0.1121 191.6491 -0.1182 C219.7212 -0.1945 219.7212 -0.1945 230.7979 8.1337 C233.2354 10.6337 233.2354 10.6337 234.7979 13.1337 C235.3754 14 235.9529 14.8662 236.5479 15.7587 C238.8351 21.9342 238.9159 28.4489 236.1729 34.5087 C232.4194 40.9264 226.8583 44.2213 219.7979 46.1337 C216.4812 46.5351 213.2058 46.5438 209.8678 46.5214 C208.8961 46.5268 207.9244 46.5322 206.9233 46.5377 C203.6823 46.552 200.4417 46.5449 197.2007 46.5378 C194.871 46.5435 192.5412 46.5504 190.2115 46.5586 C183.8933 46.5765 177.5752 46.5753 171.2569 46.5696 C165.3104 46.5661 159.3639 46.5741 153.4173 46.581 C140.9195 46.5947 128.4217 46.5893 115.9239 46.5778 C104.5048 46.5679 93.0858 46.5808 81.6667 46.6047 C69.9255 46.6291 58.1844 46.6387 46.4433 46.6321 C39.8579 46.6287 33.2727 46.6311 26.6873 46.6483 C20.4935 46.6638 14.3 46.6598 8.1062 46.641 C5.8367 46.6373 3.5671 46.6404 1.2976 46.6509 C-1.8079 46.6641 -4.9125 46.6525 -8.018 46.6349 C-8.9095 46.6445 -9.8009 46.6541 -10.7194 46.664 C-17.6998 46.5829 -24.6904 45.1454 -30.1211 40.488 C-34.3663 36.0031 -37.0047 30.8849 -37.331 24.6845 C-36.9679 17.4992 -34.587 12.2678 -29.3037 7.3759 C-20.5066 0.3989 -10.8136 -0.0204 0 0 Z " fill="url(#bulbG)" transform="translate(409.2021026611328,759.8662872314453)"/><path d="M0 0 C0.7658 -0.0052 1.5316 -0.0105 2.3205 -0.0159 C4.8767 -0.0308 7.4326 -0.0316 9.9888 -0.0322 C11.8257 -0.0399 13.6625 -0.0483 15.4994 -0.0575 C20.483 -0.0794 25.4666 -0.0882 30.4503 -0.0933 C33.5664 -0.0969 36.6825 -0.1032 39.7987 -0.1103 C50.6772 -0.1348 61.5556 -0.1478 72.4341 -0.1514 C82.5623 -0.155 92.6902 -0.1849 102.8182 -0.2268 C111.5233 -0.2615 120.2283 -0.2769 128.9335 -0.2776 C134.1284 -0.2784 139.323 -0.2871 144.5178 -0.3156 C149.4066 -0.3419 154.2949 -0.344 159.1838 -0.328 C160.9728 -0.3262 162.7618 -0.3328 164.5507 -0.3488 C182.6903 -0.5009 182.6903 -0.5009 190.2086 5.2742 C194.2704 9.5035 195.5464 13.3639 195.8961 19.2117 C195.5786 25.6996 193.4406 29.4727 189.2086 34.2742 C188.8566 34.6744 188.8566 34.6744 187.0757 36.6999 C165.4488 59.6473 131.0294 75.0393 99.5784 76.4353 C95.3508 76.4813 91.124 76.5208 86.8961 76.5242 C86.5141 76.5245 86.5141 76.5245 84.5814 76.5262 C46.847 76.4732 12.3696 62.9624 -15.3539 37.2117 C-20.063 32.2595 -23.891 26.167 -24.4164 19.2117 C-23.4256 12.9693 -20.8123 8.295 -16.3539 3.8367 C-11.0719 0.6159 -6.0819 -0.0208 0 0 Z " fill="url(#bulbG)" transform="translate(423.79144287109375,819.7258453369141)"/></g>
<g><path d="M0 0 C109.23 0 218.46 0 331 0 C331.0309 15.8813 331.0309 15.8813 331.1875 96.25 C331.2148 106.2689 331.2421 116.2878 331.2703 126.6104 C331.2838 138.8706 331.2838 138.8706 331.2863 144.6152 C331.2891 148.6164 331.3003 152.6174 331.3167 156.6186 C331.3374 161.7319 331.3435 166.8451 331.3392 171.9585 C331.3401 173.8291 331.346 175.6997 331.3576 177.5702 C331.464 195.4979 328.8621 211.5555 316 225.1641 C298.7385 241.0096 280.4086 243.4562 257.9619 243.4041 C255.7398 243.4098 253.5177 243.4167 251.2957 243.4249 C245.2872 243.4427 239.2788 243.4416 233.2703 243.4359 C228.2409 243.4328 223.2116 243.4389 218.1821 243.4449 C205.6309 243.4598 193.0798 243.4562 180.5286 243.4441 C169.6634 243.4342 158.7984 243.4471 147.9332 243.471 C136.7411 243.4955 125.549 243.5046 114.3569 243.4984 C108.0877 243.495 101.8187 243.4973 95.5496 243.5146 C89.6495 243.5302 83.7498 243.526 77.8497 243.5073 C75.6956 243.5036 73.5415 243.5067 71.3874 243.5172 C50.4769 243.6115 31.5269 240.8848 16 225.625 C4.9785 213.8591 -0.1845 200.0805 -0.1203 183.9894 C-0.1211 183.2021 -0.122 182.4149 -0.1228 181.6037 C-0.1245 178.9671 -0.119 176.3305 -0.1135 173.6938 C-0.1132 171.7708 -0.1134 169.8477 -0.1139 167.9246 C-0.1141 162.7784 -0.1083 157.6322 -0.1013 152.4861 C-0.0956 147.6557 -0.0953 142.8253 -0.0946 137.9949 C-0.0894 123.8716 -0.0754 109.7483 -0.0625 95.625 C-0.0419 64.0688 -0.0213 32.5125 0 0 Z M52 45 C51.2781 45.495 50.5562 45.99 49.8125 46.5 C46.8472 50.5901 46.0899 54.9927 46 60 C47.2519 64.4803 49.5253 67.9242 53 71 C57.1093 72.735 60.5631 73.6212 65 73 C69.8846 70.7484 74.0059 68.1613 76 63 C77.2568 58.1853 77.4992 54.292 75.4375 49.6875 C73.218 45.9181 71.07 43.8089 67 42 C61.3482 41.2107 56.5584 41.2461 52 45 Z M119.6875 47.5 C116.581 52.1022 116.335 56.6057 117 62 C119.2147 66.3473 121.8072 69.4843 126 72 C130.767 73.4155 134.7402 73.4763 139.3125 71.4375 C143.9939 68.7238 146.3023 65.2923 147.875 60.125 C148.0717 55.2064 147.7783 50.9792 144.375 47.1914 C139.6166 43.0575 136.6235 41.694 130.3164 41.7852 C125.6193 42.2208 122.8297 44.1031 119.6875 47.5 Z M189.1875 48.1875 C186.9244 53.5476 186.4723 58.1375 188.0625 63.75 C190.809 68.357 193.7943 71.2648 199 73 C204.2489 73.3961 207.5534 72.8656 212 70 C216.452 65.919 217.7147 60.8892 218 55 C217.0867 50.4073 214.6459 46.8953 211 44 C203.1288 39.5022 194.8548 41.3477 189.1875 48.1875 Z M257 48 C254.5613 53.1213 254.7877 57.5899 256 63 C257.8313 67.1204 260.1456 69.6539 264 72 C268.8474 73.4459 272.7623 73.4617 277.375 71.3125 C281.5414 68.9104 283.4734 66.5798 285 62 C285.5185 57.0611 285.552 53.1465 283.375 48.625 C280.2466 45.1673 277.5958 42.4148 272.8242 41.6523 C266.6881 41.4152 260.8335 42.8248 257 48 Z M48.125 114.25 C46.0025 119.4383 45.3635 123.8593 47.0625 129.1875 C48.8544 133.3824 51.2694 135.4352 55 138 C59.7244 139.5748 64.1096 139.7913 68.6875 137.875 C73.1719 134.239 76.0851 131.3931 77 125.625 C77.2688 120.937 76.4 117.0488 74 113 C70.2198 109.3143 66.9899 107.8616 61.75 107.6875 C55.8669 107.7642 51.9655 109.6414 48.125 114.25 Z M119.75 113.5 C116.7511 117.7841 116.4771 121.9066 117 127 C118.7125 131.8521 121.4001 135.5749 126 138 C130.9334 139.4002 135.3243 139.7755 139.9375 137.3125 C144.4058 133.9385 146.5435 131.2112 147.3438 125.582 C147.6573 120.0243 147.3976 116.6943 143.6875 112.375 C140.0972 108.6869 137.2128 107.8428 132.125 107.75 C126.3438 107.8256 123.6344 109.184 119.75 113.5 Z M191 112 C187.5379 116.8947 186.4108 121.0094 187 127 C188.9765 131.3087 191.6145 135.9291 196 138 C202.0797 139.5051 206.4694 139.2533 212 136 C216.2191 132.123 217.5301 127.5811 218 122 C217.1596 116.3974 215.2764 113.6506 211 110 C204.6855 105.7903 196.4936 106.9184 191 112 Z M256.5625 115.125 C254.2111 119.6999 254.7404 124.138 256 129 C258.6948 134.1108 261.5096 137.1699 267 139 C272.2489 139.3961 275.5534 138.8656 280 136 C284.5656 131.0643 285.3632 127.1096 285.2773 120.5742 C284.8285 116.4078 283.5788 114.3253 281 111 C272.4494 104.6888 262.7475 107.1955 256.5625 115.125 Z M49.1875 177.5625 C46.0974 181.6057 45.6158 186.0208 46 191 C47.2779 195.6067 49.2375 198.3536 52.875 201.4375 C58.1899 204.095 62.4424 204.4688 68.1055 202.8555 C72.3858 200.9227 74.3904 197.2469 76.375 193.1875 C77.3692 188.1169 77.4878 183.4859 74.7656 178.9375 C71.9795 175.4907 69.4396 172.9745 65 172 C58.1377 171.3762 54.2413 172.9579 49.1875 177.5625 Z M120.25 176.375 C117.0766 180.5004 116.5524 184.6471 116.6875 189.7227 C117.3798 194.7681 119.8915 197.9455 123.5625 201.4375 C128.4659 203.6663 132.7037 203.8609 138 203 C141.8539 201.5504 144.1139 199.5425 146.1602 195.9805 C148.431 190.3672 148.318 185.5801 146 180 C144.1038 176.7963 141.9192 174.5465 138.6875 172.625 C131.418 170.9344 126.1752 171.7195 120.25 176.375 Z M191 176 C187.759 180.1034 186.2586 184.7602 186.5469 189.9805 C187.6457 194.8779 190.5293 198.6158 194.125 202 C199.9413 204.0231 205.7367 203.9053 211.4375 201.625 C215.6823 197.2767 217.9439 192.4751 218.043 186.3359 C217.2559 180.6106 215.3228 177.542 210.7539 174.0586 C204.1981 170.1018 196.8197 171.5058 191 176 Z " fill="url(#cardG)" transform="translate(346,375)"/></g>
<g><path d="M0 0 C1.2813 0.0135 2.5627 0.0271 3.8828 0.041 C7.0057 0.076 10.1276 0.125 13.25 0.1875 C13.2599 0.6466 13.2599 0.6466 13.3101 2.9697 C13.3883 6.3842 13.475 9.7983 13.5674 13.2124 C13.6056 14.6886 13.6405 16.1648 13.6719 17.6411 C13.7177 19.7663 13.7756 21.8908 13.8359 24.0156 C13.8674 25.2934 13.8988 26.5712 13.9312 27.8877 C14.2256 30.9349 14.5723 32.6708 16.25 35.1875 C20.7054 38.2585 26.0712 37.6939 31.25 37.1875 C34.375 35.875 34.375 35.875 36.25 34.1875 C37.414 30.6954 37.4612 27.796 37.5664 24.1133 C37.6045 22.862 37.6426 21.6107 37.6819 20.3215 C37.725 18.7304 37.7681 17.1393 37.8125 15.5 C37.9569 10.4469 38.1012 5.3938 38.25 0.1875 C55.41 0.1875 72.57 0.1875 90.25 0.1875 C90.125 13.25 90.125 13.25 90.0698 17.3284 C90.003 31.7631 90.003 31.7631 94.0312 36.1094 C96.777 37.4436 98.7069 37.5211 101.75 37.4375 C102.6884 37.422 103.6269 37.4066 104.5938 37.3906 C109.3785 37.0247 109.3785 37.0247 111.25 36.1875 C113.3617 32.1109 113.5519 28.4623 113.6641 23.918 C113.6997 22.6717 113.7353 21.4254 113.772 20.1414 C113.789 19.3549 113.789 19.3549 113.875 15.375 C113.9369 12.8691 113.9369 12.8691 114.25 0.1875 C132.07 0.1875 149.89 0.1875 168.25 0.1875 C168.0625 14.3125 168.0625 14.3125 167.9797 18.7349 C167.9722 19.8974 167.9648 21.06 167.957 22.2578 C167.9413 23.4413 167.9256 24.6249 167.9094 25.8442 C168.2911 29.5908 169.3159 31.9771 171.25 35.1875 C175.5623 38.3329 181.1692 37.9101 186.25 37.1875 C189.375 35.125 189.375 35.125 191.25 32.1875 C192.578 25.6279 192.5812 18.9209 192.8125 12.25 C192.8557 11.0892 192.8989 9.9284 192.9434 8.7324 C193.0488 5.8842 193.151 3.0359 193.25 0.1875 C215.7256 -0.3032 234.9144 -0.3667 252.1567 15.9495 C263.9231 27.5923 267.9366 40.9496 269.25 57.1875 C269.25 63.7875 269.25 70.3875 269.25 77.1875 C159.69 77.1875 50.13 77.1875 -62.75 77.1875 C-66.8651 60.7271 -63.0356 40.808 -54.7656 26.3008 C-49.4821 18.1399 -43.1813 11.9946 -34.75 7.1875 C-34.1158 6.8098 -33.4816 6.4321 -32.8281 6.043 C-22.5144 0.3534 -11.5394 -0.2349 0 0 Z " fill="url(#hdrG)" transform="translate(408.75,297.8125)"/></g>
<g><path d="M0 0 C0.3906 -0.0145 0.3906 -0.0145 2.3672 -0.0879 C8.1064 -0.1518 8.1064 -0.1518 10.6016 2.082 C12.2062 5.5792 12.7499 8.7097 12.7861 12.5427 C12.7957 13.3672 12.8053 14.1916 12.8152 15.041 C12.8195 15.9234 12.8237 16.8057 12.8281 17.7148 C12.8338 18.6296 12.8395 19.5443 12.8454 20.4867 C12.8548 22.4191 12.8614 24.3515 12.8652 26.2839 C12.875 29.2358 12.906 32.187 12.9375 35.1387 C12.944 37.0182 12.9493 38.8978 12.9531 40.7773 C12.9655 41.6577 12.9778 42.538 12.9905 43.4451 C12.9687 49.481 12.0065 52.931 7.625 57.3125 C3.8347 58.7703 -0.3775 58.7734 -4.375 58.3125 C-7.2943 56.9163 -9.097 55.5905 -11.375 53.3125 C-12.2881 50.5483 -12.5086 47.9966 -12.5361 45.0981 C-12.5457 44.2769 -12.5553 43.4557 -12.5652 42.6096 C-12.5695 41.7304 -12.5737 40.8512 -12.5781 39.9453 C-12.581 39.4891 -12.581 39.4891 -12.5954 37.1806 C-12.6048 35.2524 -12.6114 33.3242 -12.6152 31.396 C-12.6249 28.4551 -12.656 25.5149 -12.6875 22.5742 C-12.694 20.6979 -12.6993 18.8216 -12.7031 16.9453 C-12.7155 16.0701 -12.7278 15.1949 -12.7405 14.2932 C-12.7029 3.9253 -10.2928 0.1261 0 0 Z " fill="#0A5FA8" transform="translate(434.375,277.6875)"/><path d="M0 0 C1.5821 0.0067 3.1641 0.0186 4.7461 0.0352 C5.5524 0.0397 6.3587 0.0442 7.1895 0.0488 C9.1875 0.0607 11.1856 0.0786 13.1836 0.0977 C16.5408 5.4979 16.6228 9.9782 16.582 16.1328 C16.5849 17.0891 16.5878 18.0454 16.5907 19.0306 C16.5928 21.0452 16.5873 23.0599 16.5747 25.0745 C16.5586 28.1536 16.5746 31.2314 16.5938 34.3105 C16.5918 36.2721 16.5879 38.2337 16.582 40.1953 C16.5881 41.1131 16.5942 42.0309 16.6004 42.9766 C16.5331 49.109 15.6382 52.6431 11.1836 57.0977 C6.3932 58.8719 1.5923 58.6293 -3.1289 56.8477 C-6.0036 54.9758 -6.6047 54.1971 -7.8164 51.0977 C-8.0771 48.9419 -8.0771 48.9419 -8.0911 46.592 C-8.0958 46.1498 -8.0958 46.1498 -8.1199 43.9118 C-8.119 42.9638 -8.1181 42.0158 -8.1172 41.0391 C-8.1215 40.0578 -8.1258 39.0765 -8.1302 38.0654 C-8.1359 35.9918 -8.1364 33.9181 -8.1321 31.8445 C-8.1289 28.6753 -8.1524 25.507 -8.1777 22.3379 C-8.18 20.3216 -8.1807 18.3053 -8.1797 16.2891 C-8.1889 15.3431 -8.1981 14.3971 -8.2076 13.4225 C-8.1617 6.8861 -7.7058 0.1972 0 0 Z " fill="#0A5FA8" transform="translate(506.81640625,277.90234375)"/><path d="M0 0 C0.7489 0.0052 1.4977 0.0105 2.2693 0.0159 C3.0782 0.0191 3.8871 0.0223 4.7205 0.0256 C5.5706 0.034 6.4207 0.0424 7.2966 0.051 C8.1506 0.0555 9.0046 0.06 9.8845 0.0647 C12.0011 0.0765 14.1176 0.0945 16.2341 0.1135 C18.5459 5.5765 19.6716 10.0198 19.4841 15.9885 C19.4695 16.7345 19.455 17.4805 19.4399 18.249 C19.4032 19.9216 19.3587 21.5941 19.3079 23.2664 C19.2248 26.4747 19.2011 29.6815 19.1755 32.8909 C19.1346 35.236 19.0917 37.581 19.0466 39.926 C19.0439 40.4896 19.0439 40.4896 19.03 43.3416 C18.8101 51.3339 18.8101 51.3339 15.8708 55.3127 C11.5992 58.2301 8.3289 58.4532 3.2341 58.1135 C-3.176 56.1169 -3.176 56.1169 -4.9463 53.1055 C-6.1083 48.8635 -6.0711 44.8099 -6.0667 40.4299 C-6.0709 39.4968 -6.0752 38.5637 -6.0796 37.6023 C-6.0854 35.633 -6.0859 33.6636 -6.0815 31.6943 C-6.0784 28.6898 -6.1019 25.6863 -6.1272 22.6819 C-6.1295 20.7646 -6.1302 18.8472 -6.1292 16.9299 C-6.1384 16.036 -6.1476 15.1421 -6.1571 14.2211 C-6.1234 9.6642 -6.0261 0.3874 0 0 Z " fill="#0A5FA8" transform="translate(582.765869140625,277.886474609375)"/></g>
<g><path d="M0 0 C0.33 0 0.66 0 1 0 C1 63.36 1 126.72 1 192 C0.67 192 0.34 192 0 192 C0 128.64 0 65.28 0 0 Z " fill="#0E8FE0" transform="translate(345,375)"/><path d="M0 0 C0.33 0 0.66 0 1 0 C1 63.69 1 127.38 1 193 C0.67 193 0.34 193 0 193 C0 129.31 0 65.62 0 0 Z " fill="#0E8FE0" transform="translate(677,376)"/><path d="M0 0 C0.66 0.33 1.32 0.66 2 1 C1.67 1.3919 1.67 1.3919 0 3.375 C-2.8313 7.6422 -2.8274 12.0519 -2 17 C-0.9084 19.3887 0.3048 20.9452 2 23 C2.33 23.66 2.66 24.32 3 25 C-0.8688 23.5325 -2.2917 21.7419 -4 18 C-5.4772 11.5636 -4.7792 7.9702 -2 2 C-1.34 1.34 -0.68 0.68 0 0 Z " fill="#0E8FE0" transform="translate(397,486)"/><path d="M0 0 C2.5625 1.625 2.5625 1.625 3.5625 3.625 C2.9231 3.3156 2.2837 3.0063 1.625 2.6875 C-3.6758 0.8484 -8.3835 -0.1113 -13.75 1.8125 C-16.3232 3.5479 -18.3692 5.318 -20.4375 7.625 C-20.1022 4.4952 -19.4368 3.6244 -17.0625 1.4375 C-11.634 -2.3107 -5.9616 -2.3847 0 0 Z " fill="#0E8FE0" transform="translate(485.4375,548.375)"/><path d="M0 0 C0 3 0 3 -2.0625 5.125 C-6.2091 7.7718 -9.5044 8.4999 -14.3789 7.5234 C-20.5739 5.7137 -20.5739 5.7137 -22.2617 2.8867 C-22.5054 2.2641 -22.749 1.6415 -23 1 C-22.0512 1.66 -21.1025 2.32 -20.125 3 C-15.5512 5.5884 -11.1396 6.0212 -6 5 C-3.5002 3.5694 -2.0116 2.1174 0 0 Z " fill="#0E8FE0" transform="translate(419,571)"/><path d="M0 0 C0.33 0 0.66 0 1 0 C1 3.96 1 7.92 1 12 C-2.3 12 -5.6 12 -9 12 C-7 9.3333 -5 6.6667 -3 4 C-2.4599 3.2523 -1.9198 2.5047 -1.3633 1.7344 C-0.9134 1.162 -0.4635 0.5897 0 0 Z " fill="#0E8FE0" transform="translate(686,613)"/><path d="M0 0 C2.964 2.808 5.445 5.1832 7 9 C4.69 9 2.38 9 0 9 C0 6.03 0 3.06 0 0 Z " fill="#0E8FE0" transform="translate(336,616)"/><path d="M0 0 C74.58 0 149.16 0 226 0 C226 0.33 226 0.66 226 1 C151.42 1 76.84 1 0 1 C0 0.67 0 0.34 0 0 Z " fill="#0E8FE0" transform="translate(398,618)"/></g>
</svg>